<svg xmlns="http://www.w3.org/2000/svg" viewBox="0 0 100.63 56.72"><defs><style>.cls-1{fill:#ababab;}</style></defs><title>logo</title><g id="Layer_1" data-name="Layer 1"><path class="cls-1" d="M47.42,26.72H17.23v3.16H47.6c0,6.15.89,12.24-.3,17.88a10.76,10.76,0,0,1-9.61,8.11,246.91,246.91,0,0,1-25.95.6c-5.12-.17-10-6.79-10.4-13.32C.74,33.43.67,23.69,0,14-.43,7.2,7.11,0,13.94,0H33.78c7.12,0,12.49,4,13.5,11.14C48,16.09,47.42,21.21,47.42,26.72ZM17.13,1.52V14.73H31V1.52ZM31,44.41V31.52H17.24V44.41ZM2.81,29.73H15.4V16.55H2.81ZM32.74,1.6V14.75H46C45.48,5.36,40.77.65,32.74,1.6Zm-17.29.11C7.64.46,1.72,6.65,2.94,14.76H15.45ZM32.73,44c9,.23,14.67-5.42,13-12.58h-13ZM15.39,44V31.55H3.45C2.74,39.69,7.86,45,15.39,44Z"/><path class="cls-1" d="M53.19,56.69c-3.77-3.78-3.31-15.11.68-21.22C50.51,32,50.35,27.7,50.62,23.2c.18-3.13.09-6.28.13-9.42A14,14,0,0,1,64.57,0H99c-.87,7.05,2.24,14.18-2.76,20.39,5.2,9.25,6,18.9,1.31,28.6-2.34,4.81-6.36,7.77-12.16,7.73C74.66,56.63,64,56.69,53.19,56.69ZM96.48,30c-.62-9.75-5.58-14.87-12.81-13.29V30.32h14.6c.11.47-2.43.93-2.33,1.39l.93-.81ZM81.6,16.53h-13v14h13Zm.2-1.71V1.76H68.56V14.82Zm-13.22,17V44.68H82.17c0-4.49-.37-8.57-.37-12.59C77.31,32.09,73.05,31.81,68.58,31.81Zm-1.7-15.52c-4.08,0-7.84,0-11.6,0-.73,0-1.46.1-2.16.15C52,24.39,59.06,31.5,66.88,30.22ZM66.63,15v-13c-8.81-.3-13.2,3.94-13.6,12.81a14.85,14.85,0,0,0,1.88.23C58.79,15,62.67,15,66.63,15Zm16.89-.24c11-.1,13-5.92,12.41-13.12H83.52Zm.3,17.61v12.3c8.08.86,14.37-5.13,12.81-12.85Zm-16.9-.27c-6.86-.05-14.08,6.62-13.15,12L66.92,45Z"/></g></svg>